<?xml version="1.0" encoding="UTF-8"?><svg id="Layer_1" xmlns="http://www.w3.org/2000/svg" viewBox="0 0 750 750"><defs><style>.cls-1{stroke-width:0px;}</style></defs><rect class="cls-1" x="439.33" y="365.64" width="323.27" height="24.81"/><path class="cls-1" d="m526.15,502.08c6.98,0,12.4-5.43,12.4-12.4v-62.02c0-6.98-5.43-12.4-12.4-12.4h-49.61c-6.98,0-12.4,5.43-12.4,12.4v62.02c0,6.98,5.43,12.4,12.4,12.4h49.61Zm-37.21-62.02h24.81v37.21h-24.81v-37.21Z"/><path class="cls-1" d="m625.38,564.87c6.98,0,12.4-5.43,12.4-12.4v-124.04c0-6.98-5.43-12.4-12.4-12.4h-49.61c-6.98,0-12.4,5.43-12.4,12.4v124.04c0,6.98,5.43,12.4,12.4,12.4h49.61Zm-37.21-124.81h24.81v99.23h-24.81v-99.23Z"/><path class="cls-1" d="m725.39,415.25h-49.61c-6.98,0-12.4,5.43-12.4,12.4v174.43h-12.4c-4.65,0-9.3,3.1-10.85,6.98-1.55,3.88-1.55,8.53,1.55,12.4l49.61,62.02c4.65,5.43,12.4,6.2,17.83,1.55l1.55-1.55,49.61-62.02c2.33-3.88,3.1-8.53,1.55-12.4-2.33-4.65-6.2-6.98-10.85-6.98h-12.4v-174.43c-.78-6.98-6.98-12.4-13.18-12.4Zm-25.58,241.1l-24.03-29.46c6.2-.78,11.63-6.2,11.63-12.4v-174.43h24.81v174.43c0,6.2,4.65,11.63,11.63,12.4l-24.03,29.46Z"/><path class="cls-1" d="m408.32,164.85c3.1-2.33,5.43-6.2,5.43-10.08v-74.42h-24.81v68.22l-31.78,20.93,13.95,20.93,37.21-25.58Z"/><path class="cls-1" d="m58.69,557.12c4.65-9.3,7.75-19.38,7.75-29.46v-80.62c0-14.73,8.53-27.91,21.71-34.11l93.03-42.64c7.75-3.1,16.28-1.55,23.26,3.1,6.98,4.65,10.85,12.4,10.85,20.93s-4.65,16.28-12.4,20.93l-81.4,51.17c-3.88,2.33-5.43,6.98-5.43,10.85v124.04c0,20.93,17.06,37.21,37.21,37.21h54.27l-40.31,81.4,21.71,11.63,46.51-92.25h141.09c20.93,0,37.21-17.06,37.21-37.21v-335.67c68.22-6.98,117.83-68.22,110.86-136.44-6.2-68.22-67.45-117.84-135.67-110.86-53.49,5.43-97.68,44.96-109.31,98.45h-126.36c-20.93,0-37.21,17.06-37.21,37.21v218.61l-38.76,17.06c-22.48,10.08-36.44,32.56-36.44,56.59v79.85c0,6.2-1.55,12.4-4.65,17.83l-48.84,88.38,21.71,12.4,49.61-88.38Zm331.02,44.96c0,6.98-5.43,12.4-12.4,12.4h-224.04c-6.98,0-12.4-5.43-12.4-12.4v-12.4h248.85s0,12.4,0,12.4Zm12.4-559.72c55.04,0,99.23,44.19,99.23,99.23s-44.19,99.23-99.23,99.23-100-44.19-100-99.23,44.96-99.23,100-99.23Zm-261.25,111.63c0-6.98,5.43-12.4,12.4-12.4h124.04c0,8.53.78,17.06,2.33,24.81h-139.54v-12.4h.78Zm0,37.21h147.29c17.83,41.09,56.59,69.77,101.56,74.42v298.46h-248.85v-79.85l75.97-47.29c24.81-12.4,34.89-42.64,22.48-66.67-12.4-24.81-42.64-34.89-66.67-22.48h0l-31.01,14.73v-171.33h-.78Z"/></svg>