<?xml version="1.0" encoding="UTF-8"?><svg id="Layer_2" xmlns="http://www.w3.org/2000/svg" viewBox="0 0 750 750"><defs><style>.cls-1{stroke-width:0px;}</style></defs><path class="cls-1" d="m513.57,66.06H236.43c-28.02,0-49.97,22.72-50.73,50.73v516.41c0,28.02,22.72,49.97,50.73,50.73h277.13c28.02,0,49.97-22.72,50.73-50.73V116.8c-.76-28.02-22.72-50.73-50.73-50.73Zm-50.73,24.99l-7.57,9.84c-6.81,9.84-18.17,15.14-30.29,15.14h-100.71c-12.12,0-22.72-5.3-30.29-15.14l-7.57-9.84h176.43Zm75.72,541.39c0,13.63-11.36,24.99-24.99,24.99H236.43c-13.63,0-24.99-11.36-24.99-24.99v-12.87h327.11s0,12.87,0,12.87Zm0-37.86H211.45v-32.56l56.03-56.03c2.27.76,59.06.76,59.06.76,6.81,26.5,34.07,43.16,60.58,36.35,18.17-4.54,31.8-18.17,36.35-36.35h52.25c21.2,0,37.86-16.66,37.86-37.86v-16.66c0-16.66-6.81-32.56-18.17-44.67l-8.33-8.33c-6.81-6.81-11.36-16.66-11.36-26.5v-74.96l62.85-62.85s0,359.67,0,359.67Zm-150.68-364.97c32.56,0,59.82,25.74,62.85,58.3l-187.78,187.03c-.76-1.51-1.51-3.79-1.51-6.06v-16.66c0-9.84,3.79-19.69,11.36-26.5l8.33-8.33c12.12-12.12,18.17-28.02,18.17-44.67v-80.26c0-34.83,28.02-62.85,62.85-62.85,0,0,25.74,0,25.74,0Zm-25.74-24.99c0-6.81,5.3-12.87,12.87-12.87,6.81,0,12.87,5.3,12.87,12.87h-25.74Zm106.76,212.77l8.33,8.33c6.81,6.81,11.36,16.66,11.36,26.5v16.66c0,6.81-5.3,12.87-12.87,12.87h-184l159.01-159.01v49.22c0,17.42,6.06,33.32,18.17,45.43Zm-71.93,89.35c-6.81,12.12-21.96,15.9-34.07,9.09-3.79-2.27-6.81-5.3-9.09-9.09h43.16Zm141.6-307.42l-66.63,66.63c-9.09-28.02-31.04-49.97-59.06-58.3v-3.79c0-21.2-16.66-37.86-37.86-37.86s-37.86,16.66-37.86,37.86v3.79c-37.1,11.36-62.85,45.43-62.85,84.05v79.51c0,9.84-3.79,19.69-11.36,26.5l-8.33,8.33c-12.12,12.12-18.17,28.02-18.17,44.67v16.66c0,9.09,3.03,17.42,9.09,23.47l-34.07,34.07V116.8c0-13.63,11.36-24.99,24.99-24.99h18.93l18.93,24.99c12.12,15.9,30.29,24.99,50.73,24.99h100.71c19.69,0,38.62-9.09,50.73-24.99l18.93-24.99h18.93c13.63,0,24.99,11.36,24.99,24.99v82.53h-.76Z"/></svg>