<?xml version="1.0" encoding="UTF-8"?><svg id="Layer_3" xmlns="http://www.w3.org/2000/svg" viewBox="0 0 750 750"><defs><style>.cls-1{stroke-width:0px;}</style></defs><path class="cls-1" d="m393.49,380.92v36.92c0,6.27,4.88,11.15,11.15,11.15h216.64v225.7h-149.07c-6.27,0-11.15,4.88-11.15,11.15v36.92c0,6.27,4.88,11.15,11.15,11.15h239.63c6.27,0,11.15-4.88,11.15-11.15v-36.92c0-6.27-4.88-11.15-11.15-11.15h-30.65v-225.7h30.65c6.27,0,11.15-4.88,11.15-11.15v-36.92c0-6.27-4.88-11.15-11.15-11.15h-306.5c-6.97,0-11.84,4.88-11.84,11.15Zm306.5,311.38h-216.64v-14.63c8.36,0,229.88,0,217.34,0v14.63h-.7Zm-41.8-37.62h-14.63v-225.7h14.63v225.7Zm-242.42-262.62h284.21v14.63h-284.21s0-14.63,0-14.63Z"/><path class="cls-1" d="m472.2,351.66h169.27c4.88,0,9.06-2.79,10.45-7.66l45.28-123.3c2.09-5.57-.7-12.54-6.97-14.63-5.57-2.09-12.54.7-14.63,6.97l-42.49,116.33h-160.91c-6.27,0-11.15,4.88-11.15,11.15s4.88,11.15,11.15,11.15Z"/><path class="cls-1" d="m236.76,208.86c47.37,0,86.38-39.01,86.38-86.38s-39.01-86.38-86.38-86.38-86.38,39.01-86.38,86.38,38.31,86.38,86.38,86.38Zm0-150.46c35.53,0,64.09,28.56,64.09,64.09s-28.56,64.09-64.09,64.09-64.09-28.56-64.09-64.09,28.56-64.09,64.09-64.09Z"/><path class="cls-1" d="m146.2,497.95h160.91c3.48,0,6.97,2.79,7.66,5.57l32.74,169.97c4.88,22.99,25.08,39.01,48.76,39.01,32.74,0,55.73-30.65,48.76-60.6l-35.53-184.6c-9.06-40.4-44.58-68.96-86.38-68.96h-84.29v-42.49l9.75,3.48c1.39.7,2.09.7,3.48.7h153.95c25.08,0,45.98-19.5,45.98-45.98,0-16.02-8.36-32.04-24.38-40.4,11.84-9.75,16.72-21.59,16.72-36.22,0-6.97-1.39-13.93-4.18-20.2-2.79-6.27-6.97-11.84-11.84-16.02l26.47-78.72c2.09-5.57-1.39-12.54-6.97-13.93-5.57-2.09-12.54,1.39-13.93,6.97l-25.08,74.54c-.7,0-1.39-.7-2.09-.7-13.93-3.48-29.26.7-41.8,10.45l-89.16,69.66h-5.57l-42.49-14.63h-.7c-2.09-2.79-4.18-4.88-6.97-7.66-18.81-19.5-44.58-29.26-72.45-29.26-39.01.7-70.36,32.74-70.36,71.75v141.41c-.7,36.22,30.65,66.87,68.96,66.87Zm259.13-160.91h-151.86l-89.86-31.35c-12.54-4.18-18.81-18.11-14.63-30.65,4.18-11.84,18.11-18.81,30.65-14.63,1.39.7,89.16,31.35,83.59,29.26h2.09c.7,0,1.39.7,2.09.7h138.62c12.54,0,23.68,9.75,23.68,23.68-.7,13.24-11.84,22.99-24.38,22.99Zm-27.86-121.21c6.97-5.57,15.33-7.66,22.99-6.27,8.36,2.09,15.33,7.66,18.81,15.33,1.39,3.48,2.09,7.66,2.09,11.15,0,9.75-2.79,16.72-18.11,26.47l-6.27,4.88h-86.38l66.87-51.55Zm-277.94,71.75c0-27.17,21.59-49.46,48.07-49.46h.7c3.48,0,6.27,0,9.75.7-13.93,4.18-25.08,14.63-29.95,29.26-8.36,24.38,4.18,50.85,28.56,59.21l59.91,20.9v62c0,6.27,4.88,11.15,11.15,11.15h95.43c31.35,0,57.82,20.9,64.09,51.55l36.22,183.9c4.18,17.41-9.06,33.44-27.17,33.44-13.24,0-24.38-9.06-27.17-20.9l-32.74-169.97c-3.48-13.93-15.33-23.68-29.95-23.68h-160.22c-25.77,0-46.67-20.9-46.67-46.67,0,0,0-141.41,0-141.41Z"/><path class="cls-1" d="m37.53,713.2c6.27,0,11.15-4.88,11.15-11.15v-157.43h190.87v156.73c0,6.27,4.88,11.15,11.15,11.15s11.15-4.88,11.15-11.15v-167.88c0-6.27-4.88-11.15-11.15-11.15H49.37v-243.81c0-6.27-4.88-11.15-11.15-11.15s-11.15,4.88-11.15,11.15v422.83c-.7,6.27,4.88,11.84,10.45,11.84Z"/><path class="cls-1" d="m489.62,59.09c27.86,13.93,39.71,47.37,25.77,75.23-2.79,5.57-.7,12.54,4.88,15.33,1.39.7,3.48,1.39,4.88,1.39,4.18,0,8.36-2.09,9.75-6.27,19.5-39.01,3.48-86.38-35.53-105.88-5.57-2.79-12.54-.7-15.33,4.88-2.09,5.57,0,12.54,5.57,15.33Z"/><path class="cls-1" d="m470.11,99.5c2.79,1.39,4.88,3.48,5.57,6.97.7,2.79.7,6.27-.7,9.06-2.79,5.57-.7,12.54,4.88,15.33,1.39.7,3.48,1.39,4.88,1.39,4.18,0,8.36-2.09,9.75-6.27,8.36-16.72,1.39-37.62-15.33-45.28-5.57-2.79-12.54-.7-15.33,4.88-2.09,4.18.7,11.15,6.27,13.93Z"/></svg>