<?xml version="1.0" encoding="UTF-8"?><svg id="Layer_4" xmlns="http://www.w3.org/2000/svg" viewBox="0 0 750 750"><defs><style>.cls-1{stroke-width:0px;}</style></defs><path class="cls-1" d="m715.77,537.98h-67.02c-6.35,0-11.29,4.94-11.29,11.29v54.33h-9.17c-1.41-49.39-66.32-113.59-108.65-121.35-21.87-3.53-64.2-7.06-110.06-8.47l33.87-26.81c8.47-7.06,14.11-16.93,14.11-28.22,0-8.47-2.82-16.23-8.47-23.28l-2.12-2.12v-2.12l-11.29-52.21c-1.41-6.35-7.06-9.88-13.4-8.47-6.35,1.41-9.88,7.06-8.47,13.4l8.47,38.1c-8.47,0-16.23,2.12-23.28,7.76l-47.27,38.1c-5.64-7.76-12.7-14.82-20.46-19.75,13.4-11.99,21.87-28.93,21.87-48.68,0-35.98-29.63-65.61-65.61-65.61s-65.61,29.63-65.61,65.61c0,12.7,3.53,24.69,10.58,35.28h-2.12c-25.4,0-47.98,16.23-56.44,40.21l-47.27,142.52c-2.82,8.47-2.12,17.64.71,26.1h-13.4v-131.23c0-6.35-4.94-11.29-11.29-11.29H34.23c-6.35,0-11.29,4.94-11.29,11.29v243.41c0,6.35,4.94,11.29,11.29,11.29h681.54c6.35,0,11.29-4.94,11.29-11.29v-166.5c0-6.35-4.94-11.29-11.29-11.29Zm-110.77,65.61H250.12c20.46-39.51,64.91-107.95,106.53-107.95s120.64,2.12,158.74,9.17c31.04,5.64,88.19,60.67,89.6,98.77Zm-318.19-286.44c23.28,0,43.04,19.05,43.04,43.04s-19.05,43.04-43.04,43.04-43.04-19.05-43.04-43.04,19.05-43.04,43.04-43.04Zm-139.69,268.1l47.27-142.52c4.94-14.82,19.05-24.69,34.57-24.69h26.81c9.17,4.94,19.75,7.76,30.34,7.76,7.06,0,14.11-1.41,20.46-3.53,13.4,4.94,23.99,14.82,30.34,28.22,2.82,6.35,11.99,8.47,17.64,4.23l57.85-45.86c5.64-4.23,14.11-3.53,19.05,2.12,2.12,2.12,2.82,5.64,2.82,8.47,0,4.23-2.12,7.76-4.94,10.58l-55.74,43.74h-16.93c-45.15,0-86.07,52.21-110.77,91.72-4.23-6.35-7.06-14.11-9.17-21.87l-10.58-49.39c-1.41-5.64-7.06-9.88-12.7-8.47-4.94,0-9.88,2.82-11.29,7.76l-28.22,100.18c-1.41,6.35-7.06,10.58-14.11,10.58-9.17-.71-16.23-9.88-12.7-19.05Zm48.68,14.11l16.93-59.26,2.12,8.47c2.82,14.11,9.17,27.52,19.05,38.1-4.23,7.06-7.06,12.7-8.47,16.93h-29.63c-.71-1.41,0-2.82,0-4.23Zm-150.28-115.71h44.45v220.83h-44.45v-220.83Zm67.73,143.22h523.5v77.61H113.25v-77.61Zm591.23,77.61h-44.45v-143.93h44.45v143.93Z"/><path class="cls-1" d="m631.1,22.94c-14.82,0-28.93,3.53-42.33,9.88-3.53,2.12-6.35,5.64-6.35,9.88s2.12,8.47,6.35,9.88c24.69,11.99,40.21,37.39,40.21,64.91s-15.52,52.91-40.21,64.91c-3.53,2.12-6.35,5.64-6.35,9.88s2.12,8.47,6.35,9.88c13.4,6.35,27.52,9.88,42.33,9.88,52.91,0,95.25-43.04,95.25-95.25s-42.33-93.83-95.25-93.83Zm0,168.62c-4.23,0-7.76,0-11.99-.71,20.46-17.64,32.45-43.74,32.45-71.96s-11.99-54.33-32.45-71.96c4.23-.71,7.76-.71,11.99-.71,40.21,0,72.67,32.45,72.67,72.67s-32.45,72.67-72.67,72.67Z"/><path class="cls-1" d="m75.86,74.45h4.94c6.35,0,11.29-4.94,11.29-11.29s-4.94-11.29-11.29-11.29h-4.94c-6.35,0-11.29,4.94-11.29,11.29s4.94,11.29,11.29,11.29Z"/><path class="cls-1" d="m479.42,90.67h4.94c6.35,0,11.29-4.94,11.29-11.29s-4.94-11.29-11.29-11.29h-4.94c-6.35,0-11.29,4.94-11.29,11.29,0,6.35,4.94,11.29,11.29,11.29Z"/><path class="cls-1" d="m101.26,250.12h4.94c6.35,0,11.29-4.94,11.29-11.29s-4.94-11.29-11.29-11.29h-4.94c-6.35,0-11.29,4.94-11.29,11.29s5.64,11.29,11.29,11.29Z"/><path class="cls-1" d="m344.66,184.51h4.94c6.35,0,11.29-4.94,11.29-11.29s-4.94-11.29-11.29-11.29h-4.94c-6.35,0-11.29,4.94-11.29,11.29,0,5.64,4.94,11.29,11.29,11.29Z"/><path class="cls-1" d="m518.93,214.14h4.94c6.35,0,11.29-4.94,11.29-11.29s-4.94-11.29-11.29-11.29h-4.94c-6.35,0-11.29,4.94-11.29,11.29s4.94,11.29,11.29,11.29Z"/><path class="cls-1" d="m228.25,122.42h4.94c6.35,0,11.29-4.94,11.29-11.29s-4.94-11.29-11.29-11.29h-4.94c-6.35,0-11.29,4.94-11.29,11.29s5.64,11.29,11.29,11.29Z"/><path class="cls-1" d="m442.02,288.22c18.34-1.41,34.57,12.7,35.98,31.04,1.41,14.82,23.99,13.4,22.58-2.12-2.82-31.04-29.63-54.33-60.67-51.5-6.35.71-10.58,5.64-10.58,11.99.71,6.35,6.35,10.58,12.7,10.58Z"/><path class="cls-1" d="m444.14,322.09c2.12,2.12,1.41,14.11,13.4,12.7,6.35-.71,10.58-5.64,10.58-11.99-1.41-14.82-14.11-25.4-28.22-23.99-6.35.71-10.58,5.64-10.58,11.99.71,11.99,12.7,9.88,14.82,11.29Z"/></svg>