<?xml version="1.0" encoding="UTF-8"?><svg id="Layer_6" xmlns="http://www.w3.org/2000/svg" viewBox="0 0 750 750"><defs><style>.cls-1{stroke-width:0px;}</style></defs><path class="cls-1" d="m732.51,250.21s-2.22-7.39-2.22-10.34c-.74-2.95-3.69-11.08-3.69-11.82-5.17-14.77-11.82-29.55-19.95-42.85-58.36-96.03-178.77-124.84-265.2-111.55-79.04,12.56-138.14,50.97-169.9,111.55-7.39,14.04-12.56,28.81-16.99,43.58l-2.22,8.86v.74l-2.22,11.82c-2.22,16.25-2.95,33.24-.74,50.23l22.9,10.34c.74,0,.74.74,1.48.74,0-2.22,0-5.17-.74-8.13-2.22-17.73-2.22-34.72.74-50.23l1.48-10.34,2.22-8.86c3.69-13.3,8.13-26.59,14.77-38.41,28.81-53.19,81.26-87.91,152.91-98.99,79.04-12.56,188.37,14.77,242.3,101.2,7.39,11.82,13.3,25.12,17.73,37.67,0,0,2.22,8.13,2.95,10.34.74,2.22,2.22,9.6,2.22,9.6,21.42,81.26.74,153.65-61.31,216.44l-2.22,3.69c-8.86,8.86-23.64,23.64-34.72,48.02-16.25,38.41-15.51,83.47,2.95,135.18h-226.05v-22.16c0-20.68-16.99-37.67-36.94-37.67l-70.18-.74c-5.17,0-9.6-3.69-9.6-9.6v-129.27c0-10.34-8.13-18.47-17.73-18.47h-30.29c-.74,0-1.48-.74-2.22-1.48-.74-.74-.74-2.22,0-2.95l40.63-85.69-31.03,11.08-31.03,65.01c-3.69,8.13-2.95,17.73,1.48,25.12,5.17,7.39,13.3,11.82,22.16,11.82h24.38v122.63c0,18.47,14.04,32.5,32.5,32.5l70.18.74c7.39,0,14.04,6.65,14.04,14.04v33.98c0,6.65,5.17,11.82,11.82,11.82h254.85c3.69,0,7.39-2.22,9.6-5.17s2.95-7.39,1.48-11.08l-1.48-3.69c-20.68-50.23-22.9-93.82-8.13-129.27,8.86-20.68,21.42-32.5,29.55-40.63l2.22-2.22c67.96-67.22,90.86-147.74,67.22-237.13Z"/><path class="cls-1" d="m377.19,324.82l-79.78-37.67c-4.43-2.22-10.34,0-12.56,4.43-2.22,4.43,0,10.34,4.43,12.56l5.17,2.22c-5.17,14.77-5.17,31.03,0,45.8l-3.69,1.48c-4.43,1.48-7.39,6.65-5.91,11.82,1.48,3.69,5.17,5.91,8.86,5.91.74,0,2.22,0,2.95-.74l79.78-28.81c3.69-1.48,5.91-4.43,5.91-8.13s-1.48-6.65-5.17-8.86Zm-65.01,21.42c-2.95-10.34-3.69-21.42,0-31.76l38.41,17.73-38.41,14.04Z"/><path class="cls-1" d="m18.92,427.5c-4.43,0-8.13-2.95-9.6-6.65-2.22-5.17.74-11.08,6.65-13.3l220.14-79.04L14.49,223.62c-5.17-2.22-7.39-8.86-5.17-14.04,2.22-5.17,8.86-7.39,14.04-5.17l244.51,115.24c3.69,1.48,5.91,5.91,5.91,9.6,0,4.43-2.95,8.13-6.65,9.6L21.87,426.76c-1.48,0-2.22.74-2.95.74Z"/></svg>